<?xml version="1.0" encoding="UTF-8"?>
<svg width="27px" height="16px" viewBox="0 0 27 16" version="1.1" xmlns="http://www.w3.org/2000/svg" xmlns:xlink="http://www.w3.org/1999/xlink">
    <!-- Generator: Sketch 41.2 (35397) - http://www.bohemiancoding.com/sketch -->
    <title>noun_585509_cc</title>
    <desc>Created with Sketch.</desc>
    <defs></defs>
    <g id="Page-1" stroke="none" stroke-width="1" fill="none" fill-rule="evenodd">
        <g id="Page-connexion-" transform="translate(-1103.000000, -545.000000)" fill="#A4A4A4">
            <g id="noun_585509_cc" transform="translate(1103.000000, 545.000000)">
                <g id="Group">
                    <g transform="translate(0.000000, 0.408205)" id="Shape">
                        <path d="M13.7535269,0 C8.40961978,0 3.66804762,2.79543747 0.724299746,7.10599642 C0.573278899,7.323866 0.573278899,7.61819496 0.724299746,7.83606454 C3.66804702,12.1466982 8.40962037,14.9517952 13.7535269,14.9517952 C19.0974331,14.9517952 23.8390065,12.1466982 26.7827541,7.83606454 C26.9337749,7.61819496 26.9337749,7.323866 26.7827541,7.10599642 C23.8390062,2.79543747 19.0974337,0 13.7535269,0 Z M13.7535269,1.24598293 C18.5411184,1.24598293 22.7843433,3.68595705 25.5320976,7.4758976 C22.7842352,11.2633119 18.5392136,13.7058123 13.7535269,13.7058123 C8.96783995,13.7058123 4.72281829,11.2633119 1.97495622,7.4758976 C4.72271017,3.68595705 8.96593507,1.24598293 13.7535269,1.24598293 Z M13.7535269,3.11495733 C11.451334,3.11495733 9.57222765,5.07478881 9.57222765,7.4758976 C9.57222765,9.87700016 11.451334,11.8368379 13.7535269,11.8368379 C16.0557198,11.8368379 17.9348262,9.87700016 17.9348262,7.4758976 C17.9348262,5.07478881 16.0557198,3.11495733 13.7535269,3.11495733 Z M13.7535269,4.36094027 C15.4100791,4.36094027 16.7401692,5.74816783 16.7401692,7.4758976 C16.7401692,9.20360868 15.4100791,10.5908549 13.7535269,10.5908549 C12.0969747,10.5908549 10.7668846,9.20360868 10.7668846,7.4758976 C10.7668846,5.74816783 12.0969747,4.36094027 13.7535269,4.36094027 Z"></path>
                    </g>
                </g>
            </g>
        </g>
    </g>
</svg>