<?xml version="1.0" encoding="UTF-8"?>
<svg width="37px" height="21px" viewBox="0 0 37 21" version="1.1" xmlns="http://www.w3.org/2000/svg" xmlns:xlink="http://www.w3.org/1999/xlink">
    <!-- Generator: Sketch 41.2 (35397) - http://www.bohemiancoding.com/sketch -->
    <title>noun_616237_cc</title>
    <desc>Created with Sketch.</desc>
    <defs></defs>
    <g id="Page-1" stroke="none" stroke-width="1" fill="none" fill-rule="evenodd" opacity="0.8">
        <g id="Page-home-(Details-scénario)" transform="translate(-246.000000, -424.000000)" fill="#FFFFFF">
            <g id="noun_616237_cc" transform="translate(246.000000, 424.000000)">
                <g id="Group">
                    <g transform="translate(0.000000, 0.630120)" id="Shape">
                        <path d="M9.31547316,0.32842811 C4.2634094,0.32842811 0.130946381,4.66549233 0.130946381,9.9676874 C0.130946381,15.2699126 4.2634094,19.6069166 9.31547316,19.6069166 C11.9083799,19.6069166 14.2259804,18.4217094 15.8989419,16.5947083 L21.1010579,16.5947083 C22.7739047,18.4217094 25.09162,19.6069166 27.6845267,19.6069166 C32.7365905,19.6069166 36.8690535,15.2699126 36.8690535,9.9676874 C36.8690535,4.66549233 32.7365905,0.32842811 27.6845267,0.32842811 C25.085076,0.32842811 22.7567411,1.50550216 21.0831481,3.34069664 L15.9168518,3.34069664 C14.2432588,1.50550216 11.9149238,0.32842811 9.31547316,0.32842811 Z M9.31547316,3.94315034 C11.1693699,3.94315034 12.7844115,4.84466207 13.8359824,6.25886189 C14.1633512,6.69980288 14.6666894,6.95697042 15.1993106,6.95541887 L21.8006892,6.95541887 C22.3333105,6.95697042 22.8366487,6.69980288 23.1640174,6.25886189 C24.2155883,4.84466207 25.83063,3.94315034 27.6845267,3.94315034 C30.8752313,3.94315034 33.4248559,6.61900872 33.4248559,9.9676874 C33.4248559,13.3163962 30.8752313,15.9922546 27.6845267,15.9922546 C25.83063,15.9922546 24.2155883,15.0906826 23.1640174,13.676543 C22.8366487,13.235602 22.3333105,12.9784345 21.8006892,12.979986 L15.1993106,12.979986 C14.6666894,12.9784345 14.1633512,13.235602 13.8359824,13.676543 C12.7844115,15.0906826 11.1693699,15.9922546 9.31547316,15.9922546 C6.12476855,15.9922546 3.57514392,13.3163962 3.57514392,9.9676874 C3.57514392,6.61900872 6.12476855,3.94315034 9.31547316,3.94315034 L9.31547316,3.94315034 Z M9.31547316,5.14805775 C8.36441541,5.14805775 7.59337439,5.95727357 7.59337439,6.95541887 L7.59337439,8.16032628 L6.44530854,8.16032628 C5.49425079,8.16032628 4.72320977,8.9695421 4.72320977,9.9676874 C4.72320977,10.9658327 5.49425079,11.7750485 6.44530854,11.7750485 L7.59337439,11.7750485 L7.59337439,12.979986 C7.59337439,13.9781916 8.36441541,14.7873472 9.31547316,14.7873472 C10.2665309,14.7873472 11.0375719,13.9781916 11.0375719,12.979986 L11.0375719,11.7750485 L12.1856378,11.7750485 C13.1367529,11.7750485 13.9077365,10.9658327 13.9077365,9.9676874 C13.9077365,8.9695421 13.1367529,8.16032628 12.1856378,8.16032628 L11.0375719,8.16032628 L11.0375719,6.95541887 C11.0375719,5.95727357 10.2665309,5.14805775 9.31547316,5.14805775 Z M27.6845267,6.35296516 C25.8068076,6.35296516 24.2403292,7.99700108 24.2403292,9.9676874 C24.2403292,11.9383737 25.8068076,13.5824398 27.6845267,13.5824398 C29.5622458,13.5824398 31.1287242,11.9383737 31.1287242,9.9676874 C31.1287242,7.99700108 29.5622458,6.35296516 27.6845267,6.35296516 Z M27.5589283,9.25227362 C27.6019808,9.24203191 27.6400392,9.25227362 27.6845267,9.25227362 C28.0404271,9.25227362 28.3661908,9.5941661 28.3661908,9.9676874 C28.3661908,10.3413292 28.0404271,10.6831012 27.6845267,10.6831012 C27.3285115,10.6831012 27.0028626,10.3413292 27.0028626,9.9676874 C27.0028626,9.64085626 27.2568148,9.32426684 27.5589283,9.25227362 Z"></path>
                    </g>
                </g>
            </g>
        </g>
    </g>
</svg>