<?xml version="1.0" encoding="UTF-8"?>
<svg width="36px" height="36px" viewBox="0 0 36 36" version="1.1" xmlns="http://www.w3.org/2000/svg" xmlns:xlink="http://www.w3.org/1999/xlink">
    <!-- Generator: Sketch 41.2 (35397) - http://www.bohemiancoding.com/sketch -->
    <title>noun_593404_cc</title>
    <desc>Created with Sketch.</desc>
    <defs>
        <path d="M27.4144621,13.2222222 C31.0630434,13.2222222 34.031746,10.2562889 34.031746,6.61111111 C34.031746,2.96593333 31.0630434,0 27.4144621,0 C23.7658808,0 20.7971781,2.96593333 20.7971781,6.61111111 C20.7971781,6.65606667 20.7975563,6.70177778 20.7990688,6.74824444 L10.6935309,11.7964889 C9.53191393,10.8845333 8.10787443,10.3888889 6.61728395,10.3888889 C2.96870265,10.3888889 0,13.3548222 0,17 C0,20.6451778 2.96870265,23.6111111 6.61728395,23.6111111 C8.10787443,23.6111111 9.53191393,23.1154667 10.6935309,22.2035111 L20.7990688,27.2513778 C20.7975563,27.2982222 20.7971781,27.3439333 20.7971781,27.3888889 C20.7971781,31.0340667 23.7658808,34 27.4144621,34 C31.0630434,34 34.031746,31.0340667 34.031746,27.3888889 C34.031746,23.7437111 31.0630434,20.7777778 27.4144621,20.7777778 C25.9238716,20.7777778 24.4998321,21.2734222 23.3382152,22.1853778 L13.2330554,17.1371333 C13.2341898,17.0910444 13.2345679,17.0453333 13.2345679,17 C13.2345679,16.9546667 13.2341898,16.9089556 13.2330554,16.8628667 L23.3382152,11.8146222 C24.4998321,12.7265778 25.9238716,13.2222222 27.4144621,13.2222222 Z M11.8188473,15.4571556 C11.4611358,15.6362222 11.2546765,16.0204222 11.3034554,16.4170889 C11.3310589,16.6411111 11.3439153,16.8262222 11.3439153,17 C11.3439153,17.1737778 11.3310589,17.3588889 11.3034554,17.5829111 C11.2546765,17.9795778 11.4611358,18.3637778 11.8188473,18.5428444 L23.0576423,24.157 C23.4157319,24.3360667 23.8483132,24.2703333 24.1368268,23.9919111 C25.023921,23.1373778 26.1878067,22.6666667 27.4144621,22.6666667 C30.0209157,22.6666667 32.1410935,24.7848667 32.1410935,27.3888889 C32.1410935,29.9929111 30.0209157,32.1111111 27.4144621,32.1111111 C24.8080085,32.1111111 22.6878307,29.9929111 22.6878307,27.3888889 C22.6878307,27.2147333 22.7006871,27.0296222 22.7282907,26.8063556 C22.7770695,26.4093111 22.5706102,26.0251111 22.2128988,25.8460444 L10.9737256,20.2318889 C10.8394892,20.1646444 10.6946653,20.1321556 10.5509757,20.1321556 C10.311619,20.1321556 10.0749093,20.2228222 9.89454109,20.3966 C9.00782504,21.2515111 7.84393933,21.7222222 6.61728395,21.7222222 C4.01083034,21.7222222 1.89065256,19.6040222 1.89065256,17 C1.89065256,14.3959778 4.01083034,12.2777778 6.61728395,12.2777778 C7.84393933,12.2777778 9.00782504,12.7484889 9.89491922,13.6034 C10.1834328,13.8810667 10.615636,13.9471778 10.9741037,13.7684889 L22.2128988,8.15433333 C22.5706102,7.97526667 22.7774476,7.59106667 22.7282907,7.19402222 C22.7006871,6.97037778 22.6878307,6.78526667 22.6878307,6.61111111 C22.6878307,4.00708889 24.8080085,1.88888889 27.4144621,1.88888889 C30.0209157,1.88888889 32.1410935,4.00708889 32.1410935,6.61111111 C32.1410935,9.21513333 30.0209157,11.3333333 27.4144621,11.3333333 C26.1878067,11.3333333 25.023921,10.8626222 24.1368268,10.0077111 C23.8479351,9.73004444 23.4153538,9.66355556 23.0576423,9.84262222 L11.8188473,15.4571556 Z" id="path-1"></path>
        <mask id="mask-2" maskContentUnits="userSpaceOnUse" maskUnits="objectBoundingBox" x="-0.5" y="-0.5" width="35.031746" height="35">
            <rect x="-0.5" y="-0.5" width="35.031746" height="35" fill="white"></rect>
            <use xlink:href="#path-1" fill="black"></use>
        </mask>
    </defs>
    <g id="Page-1" stroke="none" stroke-width="1" fill="none" fill-rule="evenodd" opacity="0.8">
        <g id="Page-home-(Details-scénario)" transform="translate(-1324.000000, -401.000000)">
            <g id="Group-7-Copy-3" transform="translate(1225.000000, 402.000000)">
                <g id="noun_593404_cc" transform="translate(99.968254, 0.000000)">
                    <g id="Group">
                        <g id="Shape">
                            <use fill="#FFFFFF" fill-rule="evenodd" xlink:href="#path-1"></use>
                            <use stroke="#FFFFFF" mask="url(#mask-2)" stroke-width="1" xlink:href="#path-1"></use>
                        </g>
                    </g>
                </g>
            </g>
        </g>
    </g>
</svg>